<?xml version="1.0" encoding="utf-8"?>
<!-- Generator: Adobe Illustrator 16.0.0, SVG Export Plug-In . SVG Version: 6.00 Build 0)  -->
<!DOCTYPE svg PUBLIC "-//W3C//DTD SVG 1.1//EN" "http://www.w3.org/Graphics/SVG/1.1/DTD/svg11.dtd">
<svg version="1.1" id="Layer_1" xmlns="http://www.w3.org/2000/svg" xmlns:xlink="http://www.w3.org/1999/xlink" x="0px" y="0px"
	 width="92px" height="16px" viewBox="0 0 92 16" enable-background="new 0 0 92 16" xml:space="preserve">
<g>
	<path fill="#F1F1F1" d="M37.3,5.4c0-3.1-2.3-5.2-5.6-5.2c-2.7,0-4.9,1.5-5.6,3.8l-0.5,1.7l3.6,1.6c-1.7,1.3-3.3,3.2-3.3,6.3v2h11.5
		v-5.4h-2.9C35.9,9.3,37.3,7.9,37.3,5.4z M31.1,6.1l0.1-0.3c0-0.2,0.1-0.2,0.1-0.2c0,0,0.1-0.1,0.4-0.1c0,0,0.1,0,0.1,0
		C31.7,5.7,31.4,5.9,31.1,6.1z"/>
	<path fill="#F1F1F1" d="M67,6.7l-1.3-1.5c-1.1-1.3-2.6-1.9-4.3-1.9c-1.1,0-2.1,0.3-2.8,0.8c-0.7-0.5-1.5-0.8-2.4-0.8
		c-0.5,0-0.9,0.1-1.3,0.2h-2.9v-3h-5.4v4.7h-1.3V0.4h-5.4v15.2h5.4v-5.2h1.3v5.2h4.3h1.1h4.3v-2.9l0.7,0.9c1,1.3,2.8,2.1,4.5,2.1
		c2.9,0,4.9-1.7,4.9-4.3c0-1.5-0.6-2.5-1.4-3.2L67,6.7z M56.2,11.7V9c0-0.1,0-0.2,0-0.3l0.9,0.6c0.2,0.4,0.5,0.8,0.8,1L56.2,11.7z"
		/>
</g>
<path fill="#5BC1B8" d="M31.6,8.1c1.2-0.7,2.3-1.5,2.3-2.7c0-1.1-0.8-1.9-2.2-1.9c-1.4,0-2.1,0.7-2.4,1.6l-1.2-0.6
	c0.4-1.4,1.8-2.4,3.7-2.4c2.2,0,3.6,1.3,3.6,3.2c0,2-1.5,2.9-3.1,3.9c-1.4,0.8-2.5,1.6-2.7,2.9h5.9v1.4h-7.5
	C27.9,10.7,29.8,9.2,31.6,8.1z"/>
<path fill="#5BC1B8" d="M48.6,8.4h-5.3v5.2h-1.4V2.4h1.4v4.7h5.3V2.4h1.4v11.2h-1.4V8.4z"/>
<path fill="#5BC1B8" d="M52.8,5.4h1.4v1.1c0.4-0.8,1-1.3,1.9-1.3c0.5,0,1,0.2,1.3,0.4L57.2,7c-0.3-0.2-0.6-0.4-1.2-0.4
	c-0.8,0-1.8,0.5-1.8,2.4v4.6h-1.4V5.4z"/>
<path fill="#5BC1B8" d="M58.5,12.4l1-0.8c0.4,0.4,1.1,1,2,1c0.9,0,1.5-0.3,1.5-1c0-0.8-0.9-1.2-1.9-1.6c-1.5-0.6-2.5-1.2-2.5-2.6
	c0-1.3,1.2-2.2,2.8-2.2c1.2,0,2.2,0.5,2.8,1.2l-1,0.8c-0.4-0.4-0.9-0.8-1.8-0.8c-0.8,0-1.4,0.3-1.4,0.9c0,0.7,0.8,1,1.7,1.4
	c1.5,0.5,2.7,1.2,2.7,2.7c0,1.5-1.1,2.3-2.9,2.3C60.3,13.8,59.2,13.2,58.5,12.4z"/>
</svg>
