<?xml version="1.0" encoding="utf-8"?>
<!-- Generator: Adobe Illustrator 16.0.0, SVG Export Plug-In . SVG Version: 6.00 Build 0)  -->
<!DOCTYPE svg PUBLIC "-//W3C//DTD SVG 1.1//EN" "http://www.w3.org/Graphics/SVG/1.1/DTD/svg11.dtd">
<svg version="1.1" id="Layer_1" xmlns="http://www.w3.org/2000/svg" xmlns:xlink="http://www.w3.org/1999/xlink" x="0px" y="0px"
	 width="92px" height="16px" viewBox="0 0 92 16" enable-background="new 0 0 92 16" xml:space="preserve">
<g>
	<path fill="#F1F1F1" d="M3.5,0.4L3,1.7c-0.1,0-0.2,0-0.4,0h-2v4.9h1.9v8.9h5.4V0.4h-3L3.5,0.4z"/>
	<path fill="#F1F1F1" d="M27.6,3.2c-0.5,0-0.9,0.1-1.3,0.2h-2.9v-3H18v4.7h-1.3V0.4h-5.4v15.2h5.4v-5.2H18v5.2h4.3h1.1h4.3V9
		c0-0.1,0-0.2,0-0.3l2.5,1.7L31,4.8l-0.9-0.7C29.5,3.5,28.6,3.2,27.6,3.2z"/>
	<path fill="#F1F1F1" d="M47.7,0.2c-2.3,0-4,1.2-5,3.2c-0.7-1.9-2.7-3.2-5-3.2c-2.5,0-4.5,1.4-5.4,3.6l-0.7,1.9L34.9,7v1.6l-3.7,1.5
		l0.7,1.8c1,2.5,3,3.9,5.7,3.9c2.4,0,4.3-1.2,5.2-2.9c1,1.9,2.7,2.9,4.9,2.9c3.6,0,5.9-3.1,5.9-7.8C53.6,3.2,51.3,0.2,47.7,0.2z
		 M47.7,10.5c-0.1-0.1-0.5-0.8-0.5-2.5c0-1.7,0.4-2.4,0.4-2.5c0,0,0,0,0,0l0,0c0.1,0.1,0.5,0.8,0.5,2.5
		C48.1,9.7,47.8,10.4,47.7,10.5z"/>
	<path fill="#F1F1F1" d="M91.7,6.7l-1.3-1.5c-1.1-1.3-2.6-1.9-4.3-1.9c-1.7,0-3.1,0.7-4,1.8c-1.1-1.5-2.9-1.8-3.9-1.8
		c-0.5,0-1,0.1-1.4,0.2h-2.6c0-0.1,0-0.2,0-0.4c0-1.6-1.3-2.9-2.9-2.9c-0.6,0-1.1,0.2-1.6,0.5V0.4h-4.6L63,5.6l-2.2-5.2h-4.6v15.2
		h5.4v-1l2.9,0v1h4.3h1.1h2.9h1.3h9.1V15c0.9,0.5,1.9,0.8,3,0.8c2.9,0,4.9-1.7,4.9-4.3c0-1.5-0.6-2.5-1.4-3.2L91.7,6.7z"/>
</g>
<path fill="#5BC1B8" d="M4.5,4.7H2.7V3.7c1.1,0,1.9-0.3,2.3-1.3h1v11.2H4.5V4.7z"/>
<path fill="#5BC1B8" d="M20,8.4h-5.3v5.2h-1.4V2.4h1.4v4.7H20V2.4h1.4v11.2H20V8.4z"/>
<path fill="#5BC1B8" d="M24.3,5.4h1.4v1.1c0.4-0.8,1-1.3,1.9-1.3c0.5,0,1,0.2,1.3,0.4L28.7,7c-0.3-0.2-0.6-0.4-1.2-0.4
	c-0.8,0-1.8,0.5-1.8,2.4v4.6h-1.4V5.4z"/>
<path fill="#5BC1B8" d="M33.8,11.2l1.3-0.5c0.5,1.3,1.4,1.8,2.5,1.8c1.3,0,2.4-0.6,2.4-2c0-1.2-0.8-2-2.3-2h-0.8V7.1h0.7
	c1.2,0,2-0.7,2-1.8c0-1.1-0.8-1.8-1.9-1.8c-1.2,0-1.9,0.8-2.2,1.5l-1.3-0.5c0.5-1.3,1.7-2.3,3.5-2.3c2,0,3.4,1.3,3.4,3
	c0,1-0.5,2-1.4,2.4c1.2,0.5,1.9,1.4,1.9,2.8c0,2.1-1.7,3.4-3.9,3.4C35.5,13.8,34.3,12.7,33.8,11.2z"/>
<path fill="#5BC1B8" d="M43.8,8c0-2.5,0.8-5.8,3.9-5.8c3,0,3.9,3,3.9,5.8c0,2.5-0.8,5.8-3.9,5.8C44.7,13.8,43.8,10.8,43.8,8z
	 M50.1,8c0-2.2-0.5-4.5-2.4-4.5c-2,0-2.5,2.5-2.5,4.5c0,2.2,0.5,4.5,2.5,4.5C49.7,12.5,50.1,10,50.1,8z"/>
<path fill="#5BC1B8" d="M66.5,13.6V6.7c0-0.4,0-0.9,0-1.2c-0.1,0.4-0.3,0.9-0.5,1.3l-3.1,7l-3-7.1c-0.1-0.4-0.4-0.8-0.5-1.2
	c0,0.3,0,0.8,0,1.2v6.9h-1.4V2.4h1.3l3.2,7.5l0.3,0.8c0.1-0.2,0.2-0.5,0.3-0.8l3.3-7.5h1.3v11.2H66.5z"/>
<path fill="#5BC1B8" d="M70.6,3.1c0-0.5,0.4-0.9,0.9-0.9c0.5,0,0.9,0.4,0.9,0.9c0,0.5-0.4,0.9-0.9,0.9C71,3.9,70.6,3.5,70.6,3.1z
	 M70.7,5.4h1.4v8.2h-1.4V5.4z"/>
<path fill="#5BC1B8" d="M79.8,8.7c0-1.6-0.8-2.1-1.8-2.1c-1.1,0-1.9,0.5-1.9,2.1v5h-1.4V5.4h1.4v0.8c0.5-0.7,1.2-1,2.1-1
	c1.9,0,2.9,1,2.9,3.7v4.7h-1.4V8.7z"/>
<path fill="#5BC1B8" d="M83.3,12.4l1-0.8c0.4,0.4,1.1,1,2,1c0.9,0,1.5-0.3,1.5-1c0-0.8-0.9-1.2-1.9-1.6c-1.5-0.6-2.5-1.2-2.5-2.6
	c0-1.3,1.2-2.2,2.8-2.2c1.2,0,2.2,0.5,2.8,1.2l-1,0.8c-0.4-0.4-0.9-0.8-1.8-0.8c-0.8,0-1.4,0.3-1.4,0.9c0,0.7,0.8,1,1.7,1.4
	c1.5,0.5,2.7,1.2,2.7,2.7c0,1.5-1.1,2.3-2.9,2.3C85,13.8,83.9,13.2,83.3,12.4z"/>
</svg>
