<?xml version="1.0" encoding="utf-8"?>
<!-- Generator: Adobe Illustrator 16.0.0, SVG Export Plug-In . SVG Version: 6.00 Build 0)  -->
<!DOCTYPE svg PUBLIC "-//W3C//DTD SVG 1.1//EN" "http://www.w3.org/Graphics/SVG/1.1/DTD/svg11.dtd">
<svg version="1.1" id="Layer_1" xmlns="http://www.w3.org/2000/svg" xmlns:xlink="http://www.w3.org/1999/xlink" x="0px" y="0px"
	 width="92px" height="16px" viewBox="0 0 92 16" enable-background="new 0 0 92 16" xml:space="preserve">
<g>
	<path fill="#F1F1F1" d="M33.9,0.4l-0.4,1.3c-0.1,0-0.2,0-0.4,0h-2v4.9h1.9v8.9h5.4V0.4h-3L33.9,0.4z"/>
	<path fill="#F1F1F1" d="M60.6,4.1C59.9,3.5,59,3.2,58,3.2c-0.5,0-0.9,0.1-1.3,0.2h-2.9v-3h-5.4v4.7h-1.3V0.4h-5.4v15.2h5.4v-5.2
		h1.3v5.2h4.3h1.1h4.3V9c0-0.1,0-0.2,0-0.3l2.5,1.7l0.9-5.6L60.6,4.1z"/>
</g>
<path fill="#5BC1B8" d="M34.9,4.7h-1.9V3.7c1.1,0,1.9-0.3,2.3-1.3h1v11.2h-1.4V4.7z"/>
<path fill="#5BC1B8" d="M50.4,8.4h-5.3v5.2h-1.4V2.4h1.4v4.7h5.3V2.4h1.4v11.2h-1.4V8.4z"/>
<path fill="#5BC1B8" d="M54.7,5.4h1.4v1.1c0.4-0.8,1-1.3,1.9-1.3c0.5,0,1,0.2,1.3,0.4L59.1,7c-0.3-0.2-0.6-0.4-1.2-0.4
	c-0.8,0-1.8,0.5-1.8,2.4v4.6h-1.4V5.4z"/>
</svg>
