<?xml version="1.0" encoding="utf-8" ?>
<svg xmlns="http://www.w3.org/2000/svg" xmlns:xlink="http://www.w3.org/1999/xlink" width="91" height="79">
	<path fill="rgb(168,132,87)" stroke="none" transform="translate(39.3594 38.3026)" d="M0 5.4027L0 40.3647L4.68257 40.3647L4.68257 0L0 5.4027Z"/>
	<path fill="rgb(168,132,87)" stroke="none" transform="translate(46.7969 29.7213)" d="M0 5.4027L0 48.9456L4.68257 48.9456L4.68257 0L0 5.4027Z"/>
	<path fill="rgb(168,132,87)" stroke="none" transform="translate(53.5391 6.44067)" d="M0 20.1829L7.02048 21.5367L37.2976 4.05568L34.9575 0L0 20.1829Z"/>
	<path fill="rgb(168,132,87)" stroke="none" transform="translate(42.3906 0)" d="M42.3891 0L0 24.4734L7.0216 25.8271L44.7316 4.05568L42.3891 0Z"/>
	<path fill="rgb(168,132,87)" stroke="none" transform="translate(0 6.44067)" d="M0 4.05568L42.388 28.5291L40.0512 21.7726L2.34016 0L0 4.05568Z"/>
	<path fill="rgb(168,132,87)" stroke="none" transform="translate(3.71875 0)" d="M2.34128 0L0 4.05568L34.9564 24.2375L32.6184 17.481L2.34128 0Z"/>
</svg>
